<svg width="45" height="45" viewBox="0 0 45 45" fill="none" xmlns="http://www.w3.org/2000/svg">
<path d="M0 0H11.25V11.25H0V0Z" fill="#45A6FF"/>
<path d="M0 11.25H11.25V22.5H0V11.25Z" fill="#45A6FF"/>
<path d="M0 22.5H11.25V33.75H0V22.5Z" fill="#45A6FF"/>
<path d="M0 33.75H11.25V45H0V33.75Z" fill="#45A6FF"/>
<path d="M11.25 11.25H22.5V22.5H11.25V11.25Z" fill="#45A6FF"/>
<path d="M11.25 22.5H22.5V33.75H11.25V22.5Z" fill="#45A6FF"/>
<path d="M11.25 33.75H22.5V45H11.25V33.75Z" fill="#45A6FF"/>
<path d="M22.5 0H33.75V11.25H22.5V0Z" fill="#45A6FF"/>
<path d="M22.5 22.5H33.75V33.75H22.5V22.5Z" fill="#45A6FF"/>
<path d="M22.5 33.75H33.75V45H22.5V33.75Z" fill="#45A6FF"/>
<path d="M33.75 11.25H45V22.5H33.75V11.25Z" fill="#45A6FF"/>
<path d="M33.75 33.75H45V45H33.75V33.75Z" fill="#45A6FF"/>
</svg>
