<svg width="87" height="75" viewBox="0 0 87 75" fill="none" xmlns="http://www.w3.org/2000/svg">
<path fill-rule="evenodd" clip-rule="evenodd" d="M0 6.5C0 2.91015 2.91015 0 6.5 0H80.5C84.0898 0 87 2.91015 87 6.5V56.1178C87 59.7077 84.0899 62.6178 80.5 62.6178H51.3725L53.4708 72H59.6538C60.4823 72 61.1538 72.6716 61.1538 73.5C61.1538 74.3284 60.4823 75 59.6538 75H27.3462C26.5177 75 25.8462 74.3284 25.8462 73.5C25.8462 72.6716 26.5177 72 27.3462 72H33.5292L35.6275 62.6178H6.5C2.91015 62.6178 0 59.7077 0 56.1178V6.5ZM38.7016 62.6178L36.6033 72H50.3967L48.2984 62.6178H38.7016ZM6.5 3C4.567 3 3 4.567 3 6.5V56.1178C3 58.0508 4.567 59.6178 6.5 59.6178H80.5C82.433 59.6178 84 58.0508 84 56.1178V6.5C84 4.56701 82.433 3 80.5 3H6.5ZM8.57692 7.58599C8.30079 7.58599 8.07692 7.80984 8.07692 8.08599V51.7803C8.07692 52.0564 8.30078 52.2803 8.57692 52.2803H78.4231C78.6992 52.2803 78.9231 52.0564 78.9231 51.7803V8.08599C78.9231 7.80984 78.6992 7.58599 78.4231 7.58599H8.57692ZM5.07692 8.08599C5.07692 6.153 6.64392 4.58599 8.57692 4.58599H78.4231C80.3561 4.58599 81.9231 6.153 81.9231 8.08599V51.7803C81.9231 53.7133 80.3561 55.2803 78.4231 55.2803H8.57692C6.64392 55.2803 5.07692 53.7133 5.07692 51.7803V8.08599ZM11.5385 12.5207C11.5385 11.6923 12.21 11.0207 13.0385 11.0207H24.8924C25.7208 11.0207 26.3924 11.6923 26.3924 12.5207C26.3924 13.3491 25.7208 14.0207 24.8924 14.0207H13.0385C12.21 14.0207 11.5385 13.3491 11.5385 12.5207ZM60.6076 12.5207C60.6076 11.6923 61.2792 11.0207 62.1076 11.0207H64.7658C65.5943 11.0207 66.2658 11.6923 66.2658 12.5207C66.2658 13.3491 65.5943 14.0207 64.7658 14.0207H62.1076C61.2792 14.0207 60.6076 13.3491 60.6076 12.5207ZM68.0506 12.5207C68.0506 11.6923 68.7222 11.0207 69.5506 11.0207H72.2089C73.0373 11.0207 73.7089 11.6923 73.7089 12.5207C73.7089 13.3491 73.0373 14.0207 72.2089 14.0207H69.5506C68.7222 14.0207 68.0506 13.3491 68.0506 12.5207ZM11.5385 19.5048H52.443V48.4873H11.5385V19.5048ZM14.5385 23.8516V44.1405L29.3377 33.996L14.5385 23.8516ZM31.9908 35.8146L17.8798 45.4873H46.1017L31.9908 35.8146ZM49.443 44.1405L34.6438 33.996L49.443 23.8516V44.1405ZM46.1017 22.5048L31.9908 32.1775L17.8798 22.5048H46.1017ZM55.8228 21.0048C55.8228 20.1764 56.4944 19.5048 57.3228 19.5048H73.8038C74.6322 19.5048 75.3038 20.1764 75.3038 21.0048C75.3038 21.8332 74.6322 22.5048 73.8038 22.5048H57.3228C56.4944 22.5048 55.8228 21.8332 55.8228 21.0048ZM55.8228 25.7771C55.8228 24.9487 56.4944 24.2771 57.3228 24.2771H66.3608C67.1892 24.2771 67.8608 24.9487 67.8608 25.7771C67.8608 26.6055 67.1892 27.2771 66.3608 27.2771H57.3228C56.4944 27.2771 55.8228 26.6055 55.8228 25.7771ZM55.8228 30.1099H75.3038V37.3519H55.8228V30.1099ZM58.8228 33.1099V34.3519H72.3038V33.1099H58.8228ZM55.8228 44.336C55.8228 43.5076 56.4944 42.836 57.3228 42.836H59.6538C60.4823 42.836 61.1538 43.5076 61.1538 44.336C61.1538 45.1644 60.4823 45.836 59.6538 45.836H57.3228C56.4944 45.836 55.8228 45.1644 55.8228 44.336ZM63.2658 44.336C63.2658 43.5076 63.9374 42.836 64.7658 42.836H67.9557C68.7841 42.836 69.4557 43.5076 69.4557 44.336C69.4557 45.1644 68.7841 45.836 67.9557 45.836H64.7658C63.9374 45.836 63.2658 45.1644 63.2658 44.336ZM37.8462 57.449C37.8462 56.6206 38.5177 55.949 39.3462 55.949H47.6538C48.4823 55.949 49.1538 56.6206 49.1538 57.449C49.1538 58.2775 48.4823 58.949 47.6538 58.949H39.3462C38.5177 58.949 37.8462 58.2775 37.8462 57.449Z" fill="#3B4252"/>
</svg>
