<svg width="87" height="75" viewBox="0 0 87 75" fill="none" xmlns="http://www.w3.org/2000/svg">
<path fill-rule="evenodd" clip-rule="evenodd" d="M0 6.5C0 2.91015 2.91015 0 6.5 0H80.5C84.0899 0 87 2.91015 87 6.5V56.1178C87 59.7077 84.0899 62.6178 80.5 62.6178H51.3725L53.4708 72H59.6538C60.4823 72 61.1538 72.6716 61.1538 73.5C61.1538 74.3284 60.4823 75 59.6538 75H27.3462C26.5177 75 25.8462 74.3284 25.8462 73.5C25.8462 72.6716 26.5177 72 27.3462 72H33.5292L35.6275 62.6178H6.5C2.91015 62.6178 0 59.7077 0 56.1178V6.5ZM38.7016 62.6178L36.6033 72H50.3967L48.2984 62.6178H38.7016ZM6.5 3C4.567 3 3 4.567 3 6.5V56.1178C3 58.0508 4.567 59.6178 6.5 59.6178H80.5C82.433 59.6178 84 58.0508 84 56.1178V6.5C84 4.56701 82.433 3 80.5 3H6.5ZM8.57692 7.58599C8.30079 7.58599 8.07692 7.80984 8.07692 8.08599V51.7803C8.07692 52.0564 8.30078 52.2803 8.57692 52.2803H78.4231C78.6992 52.2803 78.9231 52.0564 78.9231 51.7803V8.08599C78.9231 7.80984 78.6992 7.58599 78.4231 7.58599H8.57692ZM5.07692 8.08599C5.07692 6.153 6.64392 4.58599 8.57692 4.58599H78.4231C80.3561 4.58599 81.9231 6.153 81.9231 8.08599V51.7803C81.9231 53.7133 80.3561 55.2803 78.4231 55.2803H8.57692C6.64392 55.2803 5.07692 53.7133 5.07692 51.7803V8.08599ZM37.8462 57.449C37.8462 56.6206 38.5177 55.949 39.3462 55.949H47.6538C48.4823 55.949 49.1538 56.6206 49.1538 57.449C49.1538 58.2775 48.4823 58.949 47.6538 58.949H39.3462C38.5177 58.949 37.8462 58.2775 37.8462 57.449Z" fill="#3B4252"/>
<path d="M39.453 39.1336C37.9769 39.1336 36.7802 40.3297 36.7802 41.8052C36.7802 43.2819 37.9769 44.478 39.453 44.478C40.9286 44.478 42.1253 43.2819 42.1253 41.8052C42.1253 40.3298 40.9286 39.1336 39.453 39.1336Z" fill="#3B4252"/>
<path d="M51.1177 39.1336C49.641 39.1336 48.4449 40.3297 48.4449 41.8052C48.4449 43.2819 49.641 44.478 51.1177 44.478C52.5933 44.478 53.7906 43.2819 53.7906 41.8052C53.7906 40.3298 52.5933 39.1336 51.1177 39.1336Z" fill="#3B4252"/>
<path d="M57.8307 24.484L43.0262 24.4828C42.286 24.4828 41.6859 25.0829 41.6859 25.8231C41.6859 26.5634 42.286 27.1634 43.0262 27.1634L56.1245 27.1628L55.2936 29.9748L41.9766 29.9776C41.2899 29.9776 40.7331 30.5343 40.7331 31.2211C40.7331 31.9078 41.2899 32.4645 41.9766 32.4645L54.5575 32.4694L53.7763 35.0993H38.7688L37.7731 27.1616L36.8223 19.4286C36.7449 18.8167 36.3013 18.3143 35.7036 18.1619L29.3734 16.547C28.5697 16.3419 27.752 16.8273 27.547 17.631C27.3419 18.4346 27.8272 19.2524 28.6309 19.4574L33.9707 20.8196L36.0501 36.4249C36.0501 36.4249 36.1209 38.2454 37.7742 38.2454H54.3626C55.7525 38.2454 56.0212 36.796 56.0212 36.796L59.3088 27.0321C59.3088 27.0321 60.2836 24.484 57.8307 24.484Z" fill="#3B4252"/>
</svg>
