<svg width="20" height="19" viewBox="0 0 20 19" fill="none" xmlns="http://www.w3.org/2000/svg">
<path d="M19.959 6.85848C19.9106 6.70854 19.8205 6.57544 19.6994 6.47468C19.5783 6.37391 19.431 6.30963 19.2748 6.28931L13.3606 5.51431L10.6856 0.444309C10.6155 0.308159 10.5086 0.194387 10.377 0.115884C10.2455 0.0373807 10.0946 -0.00271404 9.94147 0.000142667C9.78857 0.00118455 9.63891 0.0443607 9.50895 0.124926C9.37898 0.205491 9.27375 0.320326 9.2048 0.456809L6.6123 5.56514L0.712304 6.42764C0.556364 6.45053 0.410113 6.51718 0.290524 6.61984C0.170935 6.7225 0.0829124 6.85698 0.0366715 7.00765C-0.00956932 7.15833 -0.0121321 7.31903 0.0292805 7.4711C0.0706932 7.62317 0.154383 7.76038 0.270638 7.86681L4.55314 11.7851L3.5973 17.3601C3.57132 17.5125 3.58822 17.6691 3.6461 17.8123C3.70398 17.9556 3.80056 18.08 3.92506 18.1716C4.04956 18.2631 4.19707 18.3183 4.35111 18.3308C4.50514 18.3434 4.65963 18.3128 4.7973 18.2426L10.0681 15.5493L15.3815 18.1635C15.5204 18.2318 15.6755 18.2601 15.8296 18.2452C15.9837 18.2302 16.1306 18.1727 16.2538 18.079C16.377 17.9853 16.4716 17.8591 16.5272 17.7147C16.5827 17.5702 16.5969 17.4131 16.5681 17.261L15.5215 11.7018L19.7381 7.72181C19.8529 7.61356 19.9346 7.47497 19.9736 7.32214C20.0127 7.16931 20.0077 7.00853 19.959 6.85848Z" fill="#FFCA0E"/>
</svg>
