<svg width="81" height="81" viewBox="0 0 81 81" fill="none" xmlns="http://www.w3.org/2000/svg">
<path d="M69.131 11.869C61.4939 4.21531 51.311 0 40.5 0C29.689 0 19.5061 4.21531 11.869 11.869C4.23184 19.5227 0 29.689 0 40.5C0 51.311 4.21531 61.4939 11.869 69.131C19.5227 76.7682 29.689 81 40.5 81C51.311 81 61.4939 76.7847 69.131 69.131C76.7682 61.4773 81 51.311 81 40.5C81 29.689 76.7847 19.5061 69.131 11.869V11.869ZM77.3302 38.6816H61.6261C61.4773 32.4331 60.6012 26.4159 59.0639 21.0765C62.0559 19.5392 64.8496 17.6051 67.4118 15.3239C73.1975 21.5063 76.8839 29.6724 77.3302 38.6816ZM42.3184 42.3184H58.0059C57.8737 48.071 57.0802 53.5757 55.7082 58.5018C51.4763 56.7992 46.9635 55.8073 42.3184 55.5924V42.3184V42.3184ZM64.8 12.7947C62.6841 14.6627 60.3698 16.2496 57.9233 17.572C57.2951 15.8198 56.5843 14.1667 55.7908 12.6129C54.2204 9.5051 52.4351 6.95939 50.468 5.00878C55.8404 6.51306 60.7169 9.20755 64.8 12.7947ZM42.3184 4.19878C46.1039 5.04184 49.6745 8.5298 52.5508 14.2163C53.3278 15.7537 54.022 17.3902 54.6337 19.1259C50.749 20.7294 46.5998 21.6716 42.3184 21.8865V4.19878ZM55.7247 22.6139C57.0802 27.5069 57.8571 32.9786 57.9894 38.6982H42.3184V25.5398C46.98 25.3249 51.4929 24.3165 55.7247 22.6139V22.6139ZM38.6816 38.6816H22.9941C23.1263 32.962 23.9033 27.4904 25.2588 22.5973C29.4906 24.3165 34.02 25.3084 38.6651 25.5067V38.6816H38.6816ZM38.6982 4.19878V21.8865C34.4167 21.6716 30.251 20.7294 26.3829 19.1259C26.9945 17.3902 27.6888 15.7537 28.4657 14.2163C31.342 8.5298 34.9127 5.04184 38.6982 4.19878V4.19878ZM30.5486 5.00878C28.5814 6.95939 26.7961 9.52163 25.2257 12.6129C24.4488 14.1667 23.738 15.8198 23.0933 17.572C20.6467 16.2496 18.349 14.6627 16.2165 12.7947C20.2996 9.20755 25.1761 6.51306 30.5486 5.00878ZM13.6047 15.3239C16.1669 17.6051 18.9606 19.5227 21.9527 21.0765C20.4153 26.4324 19.5227 32.4331 19.3904 38.6816H3.68633C4.13265 29.6724 7.81898 21.5063 13.6047 15.3239V15.3239ZM3.68633 42.3184H19.3904C19.5392 48.6165 20.4318 54.6502 21.9857 60.0227C19.0102 61.56 16.2165 63.461 13.6708 65.7422C7.83551 59.5433 4.13265 51.3606 3.68633 42.3184V42.3184ZM16.2827 68.2714C18.3986 66.42 20.6963 64.8331 23.1263 63.5271C23.7545 65.2298 24.4488 66.8663 25.2257 68.3871C26.7961 71.4949 28.5814 74.0406 30.5486 76.0078C25.2092 74.5035 20.3492 71.8255 16.2827 68.2714ZM38.6982 76.8012C34.9127 75.9582 31.342 72.4702 28.4657 66.7837C27.7053 65.2794 27.0276 63.6759 26.4159 61.9733C30.2841 60.3698 34.4333 59.4275 38.6982 59.2292V76.8012V76.8012ZM25.3084 58.5018C23.9363 53.5757 23.1429 48.071 23.0106 42.3184H38.6982V55.5924C34.0531 55.7908 29.5402 56.7827 25.3084 58.5018ZM42.3349 76.8012V59.2292C46.5998 59.4441 50.749 60.3698 54.6171 61.9733C54.0055 63.6759 53.3278 65.2794 52.5673 66.7837C49.691 72.4702 46.1204 75.9582 42.3349 76.8012V76.8012ZM50.4845 75.9912C52.4516 74.0406 54.2369 71.4784 55.8073 68.3706C56.5843 66.8498 57.2786 65.2133 57.9067 63.5106C60.3367 64.8165 62.6345 66.4035 64.7504 68.2549C60.6839 71.8255 55.8239 74.5035 50.4845 75.9912V75.9912ZM67.3788 65.7422C64.8331 63.4776 62.0394 61.56 59.0639 60.0227C60.6178 54.6502 61.5104 48.6 61.6592 42.3184H77.3633C76.9004 51.3606 73.1976 59.5433 67.3788 65.7422V65.7422Z" fill="#3B4252"/>
</svg>
