<svg width="189" height="172" fill="none" xmlns="http://www.w3.org/2000/svg"><path d="M86.299 0c-2.263 0-4.108 1.84-4.108 4.095v31.738L61.65 76.786v-7.167c0-2.255-1.846-4.095-4.109-4.095H4.138c-1.172 0-2.295.528-3.081 1.407-.786.88-1.172 2.032-1.027 3.2l12.324 98.286c.257 2.047 2.038 3.583 4.108 3.583h41.08a4.1 4.1 0 004.109-4.095v-4.095h4.75c1.7 4.767 6.322 8.19 11.682 8.19h78.053c9.066 0 16.432-7.343 16.432-16.381 0-3.375-1.075-6.479-2.824-9.086 6.402-2.24 11.04-8.351 11.04-15.485 0-4.016-1.444-7.647-3.851-10.494a16.44 16.44 0 007.959-14.078c0-4.015-1.444-7.646-3.851-10.494A16.438 16.438 0 00189 81.905c0-9.039-7.366-16.381-16.432-16.381h-60.08c2.503-7.903 6.675-22.044 6.675-28.667C119.163 21.436 107.834 0 96.697 0H86.3zm4.108 8.19h6.29c3.771 0 14.25 14.254 14.25 28.667 0 6.415-5.745 24.907-7.959 31.482-.433 1.248-.257 2.64.513 3.712.771 1.071 2.022 1.663 3.338 1.663h65.729c4.525 0 8.216 3.68 8.216 8.19 0 4.512-3.691 8.191-8.216 8.191h-4.108a4.089 4.089 0 00-4.108 4.096 4.089 4.089 0 004.108 4.095c4.525 0 8.216 3.679 8.216 8.19 0 4.511-3.691 8.191-8.216 8.191h-4.108a4.088 4.088 0 00-4.108 4.095 4.089 4.089 0 004.108 4.095c4.525 0 8.216 3.679 8.216 8.191 0 4.511-3.691 8.19-8.216 8.19h-8.216a4.089 4.089 0 00-4.108 4.095 4.09 4.09 0 004.108 4.096c4.525 0 8.216 3.679 8.216 8.19 0 4.511-3.691 8.191-8.216 8.191H78.083c-2.263 0-4.108-1.84-4.108-4.096a4.1 4.1 0 00-4.108-4.095H61.65V86h2.054c1.556 0 3.016-.912 3.722-2.304L90.022 38.65c.289-.56.385-1.152.385-1.792V8.19zM8.759 73.714h44.675v90.096H20.057L8.759 73.714zm30.297 69.619c-3.402 0-6.162 2.752-6.162 6.143 0 3.392 2.76 6.143 6.162 6.143s6.162-2.751 6.162-6.143c0-3.391-2.76-6.143-6.162-6.143z" fill="#E6E6E6"/></svg>