<svg width="186" height="34" viewBox="0 0 186 34" fill="none" xmlns="http://www.w3.org/2000/svg">
<path d="M94.3089 6.48389V26.3484H90.3672V13.4649L84.6993 22.6877H84.239L78.571 13.4932V26.3484H74.6006V6.48389H78.6861L84.4691 15.877L90.2234 6.48389H94.3089Z" fill="#3B4252"/>
<path d="M110.145 24.589C108.669 26.0268 106.866 26.7457 104.736 26.7457C102.607 26.7457 100.804 26.0268 99.3275 24.589C97.8697 23.1323 97.1409 21.3539 97.1409 19.254C97.1409 17.154 97.8697 15.3851 99.3275 13.9473C100.804 12.4906 102.607 11.7622 104.736 11.7622C106.866 11.7622 108.669 12.4906 110.145 13.9473C111.622 15.3851 112.361 17.154 112.361 19.254C112.361 21.3539 111.622 23.1323 110.145 24.589ZM101.946 22.0634C102.694 22.8012 103.624 23.1701 104.736 23.1701C105.849 23.1701 106.779 22.8012 107.527 22.0634C108.275 21.3256 108.649 20.3891 108.649 19.254C108.649 18.1188 108.275 17.1824 107.527 16.4445C106.779 15.7067 105.849 15.3378 104.736 15.3378C103.624 15.3378 102.694 15.7067 101.946 16.4445C101.217 17.1824 100.852 18.1188 100.852 19.254C100.852 20.3891 101.217 21.3256 101.946 22.0634Z" fill="#3B4252"/>
<path d="M122.891 15.6783H119.64V21.581C119.64 22.0728 119.765 22.4323 120.014 22.6593C120.264 22.8863 120.628 23.0188 121.108 23.0566C121.587 23.0755 122.182 23.0661 122.891 23.0282V26.3484C120.34 26.6322 118.537 26.3957 117.482 25.639C116.447 24.8823 115.929 23.5296 115.929 21.581V15.6783H113.426V12.1595H115.929V9.2933L119.64 8.18656V12.1595H122.891V15.6783Z" fill="#3B4252"/>
<path d="M137.315 24.589C135.838 26.0268 134.035 26.7457 131.906 26.7457C129.777 26.7457 127.974 26.0268 126.497 24.589C125.039 23.1323 124.311 21.3539 124.311 19.254C124.311 17.154 125.039 15.3851 126.497 13.9473C127.974 12.4906 129.777 11.7622 131.906 11.7622C134.035 11.7622 135.838 12.4906 137.315 13.9473C138.792 15.3851 139.531 17.154 139.531 19.254C139.531 21.3539 138.792 23.1323 137.315 24.589ZM129.115 22.0634C129.863 22.8012 130.794 23.1701 131.906 23.1701C133.019 23.1701 133.949 22.8012 134.697 22.0634C135.445 21.3256 135.819 20.3891 135.819 19.254C135.819 18.1188 135.445 17.1824 134.697 16.4445C133.949 15.7067 133.019 15.3378 131.906 15.3378C130.794 15.3378 129.863 15.7067 129.115 16.4445C128.387 17.1824 128.022 18.1188 128.022 19.254C128.022 20.3891 128.387 21.3256 129.115 22.0634Z" fill="#3B4252"/>
<path d="M149.265 27.2063C147.436 27.2063 145.864 26.7781 144.549 25.9216C143.253 25.0461 142.348 23.8471 141.833 22.3245L143.548 21.3253C143.91 22.5624 144.577 23.5331 145.549 24.2373C146.521 24.9224 147.769 25.265 149.294 25.265C150.78 25.265 151.933 24.9415 152.753 24.2944C153.591 23.6282 154.01 22.7527 154.01 21.6679C154.01 20.6211 153.629 19.8313 152.867 19.2984C152.105 18.7655 150.847 18.2136 149.094 17.6426C147.017 16.9574 145.644 16.4055 144.977 15.9868C143.453 15.0733 142.691 13.7505 142.691 12.0186C142.691 10.3247 143.281 8.99246 144.463 8.02182C145.644 7.03214 147.102 6.53731 148.836 6.53731C150.399 6.53731 151.752 6.9465 152.896 7.76488C154.039 8.56424 154.887 9.59198 155.44 10.8481L153.753 11.7902C152.838 9.58246 151.2 8.47859 148.836 8.47859C147.598 8.47859 146.597 8.78311 145.835 9.39214C145.073 10.0012 144.692 10.8481 144.692 11.9329C144.692 12.9226 145.035 13.6649 145.721 14.1597C146.407 14.6545 147.541 15.1589 149.122 15.6728C149.847 15.9202 150.361 16.101 150.666 16.2152C150.99 16.3103 151.447 16.4816 152.038 16.7291C152.648 16.9574 153.096 17.1668 153.382 17.3571C153.667 17.5284 154.01 17.7758 154.411 18.0994C154.83 18.4039 155.125 18.7179 155.297 19.0415C155.487 19.346 155.649 19.7266 155.783 20.1834C155.935 20.6211 156.011 21.0969 156.011 21.6108C156.011 23.3047 155.392 24.6655 154.153 25.6932C152.915 26.7019 151.285 27.2063 149.265 27.2063Z" fill="#EBB600"/>
<path d="M161.076 9.16375C160.809 9.4302 160.485 9.56343 160.104 9.56343C159.723 9.56343 159.399 9.4302 159.132 9.16375C158.865 8.8973 158.732 8.57375 158.732 8.19311C158.732 7.81246 158.865 7.48892 159.132 7.22247C159.399 6.95602 159.723 6.82279 160.104 6.82279C160.485 6.82279 160.809 6.95602 161.076 7.22247C161.343 7.48892 161.476 7.81246 161.476 8.19311C161.476 8.57375 161.343 8.8973 161.076 9.16375ZM159.161 26.8637V12.5895H161.047V26.8637H159.161Z" fill="#EBB600"/>
<path d="M165.051 26.8637V6.02344H166.938V26.8637H165.051Z" fill="#EBB600"/>
<path d="M183.233 12.5895H185.12V26.8637H183.233V24.066C181.918 26.1595 179.993 27.2063 177.459 27.2063C175.42 27.2063 173.676 26.4831 172.228 25.0366C170.798 23.5902 170.084 21.8202 170.084 19.7266C170.084 17.6331 170.798 15.8631 172.228 14.4166C173.676 12.9702 175.42 12.247 177.459 12.247C179.993 12.247 181.918 13.2937 183.233 15.3873V12.5895ZM173.6 23.7519C174.686 24.8368 176.02 25.3792 177.602 25.3792C179.183 25.3792 180.517 24.8368 181.604 23.7519C182.69 22.6481 183.233 21.3063 183.233 19.7266C183.233 18.147 182.69 16.8147 181.604 15.7299C180.517 14.626 179.183 14.0741 177.602 14.0741C176.02 14.0741 174.686 14.626 173.6 15.7299C172.513 16.8147 171.97 18.147 171.97 19.7266C171.97 21.3063 172.513 22.6481 173.6 23.7519Z" fill="#EBB600"/>
<path d="M52.7695 0H4.95397V33.1693H52.7695V0Z" fill="#3B4252"/>
<path d="M16.8874 21.9561C10.1147 22.1726 0 25.8865 0 25.8865C0 25.8865 9.38191 14.7888 32.133 18.7193C39.6383 20.0159 43.7571 22.3538 51.366 21.9561C57.1798 21.6522 65.9079 18.7193 65.9079 18.7193C65.9079 18.7193 60.9844 22.9919 57.2297 24.7305C50.8734 27.6738 46.4492 28.6888 39.4155 28.5384C30.3707 28.3449 25.9248 21.6672 16.8874 21.9561Z" fill="#FFCA0E"/>
<path d="M16.8874 24.11C9.76948 24.3375 0 28.0405 0 28.0405C0 28.0405 10.8612 25.4109 17.877 25.8866C23.4625 26.2653 31.877 28.9692 31.877 28.9692C27.0736 26.9524 23.0469 23.9132 16.8874 24.11Z" fill="#FFCA0E"/>
<path d="M32.1326 17.2248C21.5916 15.4037 13.9205 16.8087 8.72266 18.8412C16.3365 14.4841 21.9262 11.4022 38.5535 10.7572C40.6783 10.6748 42.6565 11.8079 43.7136 13.6529L47.5997 20.4355C42.1851 20.061 38.3036 18.2908 32.1326 17.2248Z" fill="#F8F8F8"/>
<path d="M15.9691 13.4135C20.8105 11.2684 26.5378 9.78021 36.4221 9.23992C34.9047 6.6199 31.74 5.40182 28.92 6.50403C23.1471 8.76045 19.5048 10.9058 15.9691 13.4135Z" fill="#F8F8F8"/>
</svg>
