<svg width="184" height="60" viewBox="0 0 184 60" fill="none" xmlns="http://www.w3.org/2000/svg">
<g filter="url(#filter0_d_43_190)">
<path d="M28.4313 44.1802V54.9356H17.2918C10.5032 54.9356 5 49.4323 5 42.6438V31.8884H16.1395C22.928 31.8884 28.4313 37.3917 28.4313 44.1802Z" fill="#5DDAFA"/>
<path d="M28.4313 44.1802V54.9356H17.2918C10.5032 54.9356 5 49.4323 5 42.6438V31.8884H16.1395C22.928 31.8884 28.4313 37.3917 28.4313 44.1802Z" fill="url(#paint0_linear_43_190)"/>
<path d="M34.5772 44.1802V54.9356H45.7166C52.5052 54.9356 58.0084 49.4323 58.0084 42.6438V31.8884H46.869C40.0804 31.8884 34.5772 37.3917 34.5772 44.1802Z" fill="#5DDAFA"/>
<path d="M34.5772 44.1802V54.9356H45.7166C52.5052 54.9356 58.0084 49.4323 58.0084 42.6438V31.8884H46.869C40.0804 31.8884 34.5772 37.3917 34.5772 44.1802Z" fill="url(#paint1_linear_43_190)"/>
</g>
<g filter="url(#filter1_d_43_190)">
<path d="M21.6595 16.9737L31.5045 5L41.3496 16.9737C43.8359 19.9976 43.6508 24.4074 40.9198 27.2122L31.5045 36.8819L22.0893 27.2122C19.3583 24.4074 19.1732 19.9976 21.6595 16.9737Z" fill="#1CC464"/>
</g>
<path fill-rule="evenodd" clip-rule="evenodd" d="M87.7821 16.4277H78.3192C77.7093 16.4277 77.2148 15.9332 77.2148 15.3233C77.2148 14.7134 77.7093 14.219 78.3192 14.219H87.7821C90.2394 14.219 92.2315 16.1967 92.2315 18.6364V27.4711C92.2315 29.9107 90.2394 31.8885 87.7821 31.8885H78.3192C77.7093 31.8885 77.2148 31.394 77.2148 30.7841C77.2148 30.1742 77.7093 29.6798 78.3192 29.6798H87.7821C89.0108 29.6798 90.0068 28.6909 90.0068 27.4711V23.6059H82.7686C82.1587 23.6059 81.6642 23.1115 81.6642 22.5016C81.6642 21.8916 82.1587 21.3972 82.7686 21.3972H90.0068V18.6364C90.0068 17.4165 89.0108 16.4277 87.7821 16.4277ZM114.478 16.4277C113.25 16.4277 112.254 17.4165 112.254 18.6364V27.4711C112.254 28.6909 113.25 29.6798 114.478 29.6798H122.265C123.493 29.6798 124.489 28.6909 124.489 27.4711V18.6364C124.489 17.4165 123.493 16.4277 122.265 16.4277H114.478ZM110.029 18.6364C110.029 16.1967 112.021 14.219 114.478 14.219H122.265C124.722 14.219 126.714 16.1967 126.714 18.6364V27.4711C126.714 29.9107 124.722 31.8885 122.265 31.8885H114.478C112.021 31.8885 110.029 29.9107 110.029 27.4711V18.6364Z" fill="#47B0FC"/>
<path d="M99.0424 22.5212L107.368 16.2006C108.113 15.6348 107.713 14.4461 106.777 14.4461H106.389C106.147 14.4461 105.912 14.5252 105.719 14.6715L96.8605 21.3972H96.1247V15.3313C96.1247 14.717 95.6267 14.219 95.0124 14.219C94.398 14.219 93.9 14.717 93.9 15.3313V30.7761C93.9 31.3905 94.398 31.8885 95.0124 31.8885C95.6267 31.8885 96.1247 31.3905 96.1247 30.7761V23.6059H96.8469L107.066 31.6512C107.262 31.8049 107.503 31.8885 107.751 31.8885L108.16 31.8884C109.077 31.8884 109.478 30.7306 108.757 30.1638L99.0424 22.5212Z" fill="#47B0FC"/>
<path d="M80.8497 36.5225C81.9898 36.5225 82.9219 36.8989 83.6461 37.6518C84.3774 38.3975 84.7431 39.3188 84.7431 40.4159C84.7431 41.5129 84.3774 42.4379 83.6461 43.1908C82.9219 43.9365 81.9898 44.3093 80.8497 44.3093C80.1542 44.3093 79.5124 44.1408 78.9245 43.8038C78.3437 43.4668 77.8991 43.0151 77.5908 42.4486L78.2577 42.0722C78.4943 42.5311 78.8456 42.8968 79.3117 43.1693C79.7777 43.4417 80.2904 43.578 80.8497 43.578C81.7173 43.578 82.4343 43.3127 83.0008 42.7821C83.5672 42.2515 83.8899 41.5811 83.9687 40.7708H79.8494V40.061H83.9687C83.8899 39.2507 83.5672 38.5803 83.0008 38.0497C82.4343 37.5191 81.7173 37.2538 80.8497 37.2538C80.2904 37.2538 79.7777 37.3901 79.3117 37.6625C78.8456 37.935 78.4943 38.3007 78.2577 38.7596L77.5908 38.3724C77.9063 37.8059 78.3544 37.3578 78.9352 37.028C79.516 36.691 80.1542 36.5225 80.8497 36.5225Z" fill="#627383"/>
<path d="M89.9512 44.1803H89.0048L86.3159 41.5882V44.1803H85.6061V38.8026H86.3159V41.1795L88.8757 38.8026H89.8437L87.0688 41.3839L89.9512 44.1803Z" fill="#627383"/>
<path d="M94.5689 43.5027C94.0239 44.0404 93.3571 44.3093 92.5684 44.3093C91.7797 44.3093 91.1092 44.0404 90.5571 43.5027C90.0122 42.9577 89.7397 42.2873 89.7397 41.4914C89.7397 40.6955 90.0122 40.0287 90.5571 39.4909C91.1092 38.946 91.7797 38.6735 92.5684 38.6735C93.3571 38.6735 94.0239 38.946 94.5689 39.4909C95.121 40.0287 95.397 40.6955 95.397 41.4914C95.397 42.2873 95.121 42.9577 94.5689 43.5027ZM91.0626 43.0079C91.4713 43.4166 91.9733 43.621 92.5684 43.621C93.1635 43.621 93.6654 43.4166 94.0741 43.0079C94.4828 42.5921 94.6872 42.0866 94.6872 41.4914C94.6872 40.8963 94.4828 40.3944 94.0741 39.9857C93.6654 39.5698 93.1635 39.3619 92.5684 39.3619C91.9733 39.3619 91.4713 39.5698 91.0626 39.9857C90.6539 40.3944 90.4496 40.8963 90.4496 41.4914C90.4496 42.0866 90.6539 42.5921 91.0626 43.0079Z" fill="#627383"/>
<path d="M100.462 38.8026V44.1803H99.752V39.4909H97.3213V41.8894C97.3213 42.7857 97.1492 43.4023 96.8051 43.7393C96.4681 44.0763 96.002 44.2233 95.4069 44.1803V43.5134C95.8156 43.5564 96.1167 43.4597 96.3103 43.223C96.5111 42.9864 96.6115 42.5419 96.6115 41.8894V38.8026H100.462Z" fill="#627383"/>
<path d="M106.149 43.5027C105.604 44.0404 104.938 44.3093 104.149 44.3093C103.36 44.3093 102.69 44.0404 102.138 43.5027C101.593 42.9577 101.32 42.2873 101.32 41.4914C101.32 40.6955 101.593 40.0287 102.138 39.4909C102.69 38.946 103.36 38.6735 104.149 38.6735C104.938 38.6735 105.604 38.946 106.149 39.4909C106.701 40.0287 106.978 40.6955 106.978 41.4914C106.978 42.2873 106.701 42.9577 106.149 43.5027ZM102.643 43.0079C103.052 43.4166 103.554 43.621 104.149 43.621C104.744 43.621 105.246 43.4166 105.655 43.0079C106.063 42.5921 106.268 42.0866 106.268 41.4914C106.268 40.8963 106.063 40.3944 105.655 39.9857C105.246 39.5698 104.744 39.3619 104.149 39.3619C103.554 39.3619 103.052 39.5698 102.643 39.9857C102.234 40.3944 102.03 40.8963 102.03 41.4914C102.03 42.0866 102.234 42.5921 102.643 43.0079Z" fill="#627383"/>
<path d="M111.284 38.8026V39.4909H108.553V44.1803H107.843V38.8026H111.284Z" fill="#627383"/>
<path d="M115.741 38.8026H116.344V44.1803H115.634V40.0395L112.429 44.1803H111.826V38.8026H112.536V42.9434L115.741 38.8026Z" fill="#627383"/>
<path d="M121.007 38.8026H121.717V44.1803H121.007V42.1367C120.591 42.3519 120.078 42.4594 119.469 42.4594C118.766 42.4594 118.228 42.2981 117.856 41.9754C117.49 41.6456 117.307 41.1616 117.307 40.5234V38.8026H118.017V40.5234C118.017 40.9752 118.135 41.3014 118.372 41.5022C118.608 41.6958 118.967 41.7926 119.447 41.7926C120.007 41.7926 120.526 41.6886 121.007 41.4807V38.8026Z" fill="#627383"/>
<path d="M125.387 38.6735C126.183 38.6735 126.825 38.9568 127.312 39.5232C127.807 40.0825 128.055 40.7457 128.055 41.5129C128.055 41.5918 128.047 41.7029 128.033 41.8464H123.311C123.383 42.3913 123.613 42.8251 124 43.1477C124.394 43.4632 124.878 43.621 125.452 43.621C125.86 43.621 126.212 43.5385 126.506 43.3736C126.807 43.2015 127.033 42.9792 127.183 42.7068L127.807 43.0725C127.571 43.4525 127.248 43.7536 126.839 43.9759C126.43 44.1982 125.964 44.3093 125.441 44.3093C124.595 44.3093 123.907 44.044 123.376 43.5134C122.845 42.9828 122.58 42.3088 122.58 41.4914C122.58 40.6884 122.842 40.0179 123.365 39.4802C123.889 38.9424 124.563 38.6735 125.387 38.6735ZM125.387 39.3619C124.828 39.3619 124.358 39.5304 123.978 39.8674C123.605 40.1972 123.383 40.6274 123.311 41.158H127.323C127.251 40.5916 127.033 40.1506 126.667 39.8351C126.301 39.5196 125.875 39.3619 125.387 39.3619Z" fill="#627383"/>
<path d="M131.367 44.3093C130.557 44.3093 129.883 44.0404 129.345 43.5027C128.807 42.9577 128.538 42.2873 128.538 41.4914C128.538 40.6955 128.807 40.0287 129.345 39.4909C129.883 38.946 130.557 38.6735 131.367 38.6735C131.898 38.6735 132.374 38.8026 132.797 39.0607C133.22 39.3117 133.529 39.6523 133.722 40.0825L133.142 40.4159C132.998 40.0932 132.765 39.8387 132.443 39.6523C132.127 39.4587 131.769 39.3619 131.367 39.3619C130.772 39.3619 130.27 39.5698 129.861 39.9857C129.453 40.3944 129.248 40.8963 129.248 41.4914C129.248 42.0866 129.453 42.5921 129.861 43.0079C130.27 43.4166 130.772 43.621 131.367 43.621C131.769 43.621 132.127 43.5278 132.443 43.3413C132.758 43.1477 133.005 42.8896 133.185 42.567L133.776 42.9111C133.554 43.3413 133.228 43.6819 132.797 43.9329C132.367 44.1838 131.89 44.3093 131.367 44.3093Z" fill="#627383"/>
<path d="M138.818 44.1803H137.871L135.183 41.5882V44.1803H134.473V38.8026H135.183V41.1795L137.742 38.8026H138.71L135.935 41.3839L138.818 44.1803Z" fill="#627383"/>
<path d="M143.38 38.8026H143.982V44.1803H143.272V40.0395L140.067 44.1803H139.465V38.8026H140.175V42.9434L143.38 38.8026Z" fill="#627383"/>
<path d="M147.645 38.6735C148.441 38.6735 149.082 38.9568 149.57 39.5232C150.065 40.0825 150.312 40.7457 150.312 41.5129C150.312 41.5918 150.305 41.7029 150.291 41.8464H145.569C145.641 42.3913 145.87 42.8251 146.257 43.1477C146.652 43.4632 147.136 43.621 147.709 43.621C148.118 43.621 148.469 43.5385 148.763 43.3736C149.065 43.2015 149.29 42.9792 149.441 42.7068L150.065 43.0725C149.828 43.4525 149.506 43.7536 149.097 43.9759C148.688 44.1982 148.222 44.3093 147.699 44.3093C146.853 44.3093 146.164 44.044 145.634 43.5134C145.103 42.9828 144.838 42.3088 144.838 41.4914C144.838 40.6884 145.099 40.0179 145.623 39.4802C146.146 38.9424 146.82 38.6735 147.645 38.6735ZM147.645 39.3619C147.086 39.3619 146.616 39.5304 146.236 39.8674C145.863 40.1972 145.641 40.6274 145.569 41.158H149.581C149.509 40.5916 149.29 40.1506 148.925 39.8351C148.559 39.5196 148.132 39.3619 147.645 39.3619Z" fill="#627383"/>
<path d="M157.357 38.8026H158.11L155.808 44.675C155.6 45.2056 155.302 45.6215 154.915 45.9226C154.535 46.2309 154.109 46.3672 153.635 46.3313V45.6645C154.281 45.7362 154.772 45.3633 155.109 44.5459L155.249 44.2125L152.84 38.8026H153.592L155.614 43.3091L157.357 38.8026Z" fill="#627383"/>
<path d="M160.941 44.3093C160.131 44.3093 159.457 44.0404 158.919 43.5027C158.381 42.9577 158.112 42.2873 158.112 41.4914C158.112 40.6955 158.381 40.0287 158.919 39.4909C159.457 38.946 160.131 38.6735 160.941 38.6735C161.471 38.6735 161.948 38.8026 162.371 39.0607C162.794 39.3117 163.103 39.6523 163.296 40.0825L162.715 40.4159C162.572 40.0932 162.339 39.8387 162.016 39.6523C161.701 39.4587 161.342 39.3619 160.941 39.3619C160.346 39.3619 159.844 39.5698 159.435 39.9857C159.026 40.3944 158.822 40.8963 158.822 41.4914C158.822 42.0866 159.026 42.5921 159.435 43.0079C159.844 43.4166 160.346 43.621 160.941 43.621C161.342 43.621 161.701 43.5278 162.016 43.3413C162.332 43.1477 162.579 42.8896 162.758 42.567L163.35 42.9111C163.128 43.3413 162.801 43.6819 162.371 43.9329C161.941 44.1838 161.464 44.3093 160.941 44.3093Z" fill="#627383"/>
<path d="M168.351 38.8026V44.1803H167.641V39.4909H165.211V41.8894C165.211 42.7857 165.038 43.4023 164.694 43.7393C164.357 44.0763 163.891 44.2233 163.296 44.1803V43.5134C163.705 43.5564 164.006 43.4597 164.2 43.223C164.4 42.9864 164.501 42.5419 164.501 41.8894V38.8026H168.351Z" fill="#627383"/>
<path d="M173.404 38.8026H174.157L171.855 44.675C171.647 45.2056 171.35 45.6215 170.963 45.9226C170.583 46.2309 170.156 46.3672 169.683 46.3313V45.6645C170.328 45.7362 170.819 45.3633 171.156 44.5459L171.296 44.2125L168.887 38.8026H169.64L171.662 43.3091L173.404 38.8026Z" fill="#627383"/>
<path d="M178.134 38.8026V39.4909H175.402V44.1803H174.692V38.8026H178.134Z" fill="#627383"/>
<path d="M182.591 38.8026H183.193V44.1803H182.483V40.0395L179.278 44.1803H178.676V38.8026H179.386V42.9434L182.591 38.8026Z" fill="#627383"/>
<path d="M140.062 16.4274H130.599C129.99 16.4274 129.495 15.933 129.495 15.3231C129.495 14.7132 129.99 14.2188 130.599 14.2188H140.062C142.52 14.2188 144.512 16.1965 144.512 18.6361V27.4709C144.512 29.9105 142.52 31.8882 140.062 31.8882H130.599C129.99 31.8882 129.495 31.3938 129.495 30.7839C129.495 30.174 129.99 29.6795 130.599 29.6795H140.062C141.291 29.6795 142.287 28.6907 142.287 27.4709V23.6057H135.049C134.439 23.6057 133.945 23.1112 133.945 22.5013C133.945 21.8914 134.439 21.397 135.049 21.397H142.287V18.6361C142.287 17.4163 141.291 16.4274 140.062 16.4274Z" fill="#627383"/>
<path d="M140.062 16.4274H130.599C129.99 16.4274 129.495 15.933 129.495 15.3231C129.495 14.7132 129.99 14.2188 130.599 14.2188H140.062C142.52 14.2188 144.512 16.1965 144.512 18.6361V27.4709C144.512 29.9105 142.52 31.8882 140.062 31.8882H130.599C129.99 31.8882 129.495 31.3938 129.495 30.7839C129.495 30.174 129.99 29.6795 130.599 29.6795H140.062C141.291 29.6795 142.287 28.6907 142.287 27.4709V23.6057H135.049C134.439 23.6057 133.945 23.1112 133.945 22.5013C133.945 21.8914 134.439 21.397 135.049 21.397H142.287V18.6361C142.287 17.4163 141.291 16.4274 140.062 16.4274Z" fill="#1CC464"/>
<path fill-rule="evenodd" clip-rule="evenodd" d="M149.265 14.2188C147.868 14.2188 146.736 15.3425 146.736 16.7286V30.7759C146.736 31.3902 147.234 31.8882 147.849 31.8882C148.463 31.8882 148.961 31.3902 148.961 30.7759V25.8143H158.694C161.919 25.8143 164.534 23.2186 164.534 20.0165C164.534 16.8145 161.919 14.2188 158.694 14.2188H149.265ZM148.961 23.6057H158.694C160.691 23.6057 162.309 21.9988 162.309 20.0165C162.309 18.0343 160.691 16.4274 158.694 16.4274H149.265C149.097 16.4274 148.961 16.5623 148.961 16.7286V23.6057Z" fill="#627383"/>
<path fill-rule="evenodd" clip-rule="evenodd" d="M149.265 14.2188C147.868 14.2188 146.736 15.3425 146.736 16.7286V30.7759C146.736 31.3902 147.234 31.8882 147.849 31.8882C148.463 31.8882 148.961 31.3902 148.961 30.7759V25.8143H158.694C161.919 25.8143 164.534 23.2186 164.534 20.0165C164.534 16.8145 161.919 14.2188 158.694 14.2188H149.265ZM148.961 23.6057H158.694C160.691 23.6057 162.309 21.9988 162.309 20.0165C162.309 18.0343 160.691 16.4274 158.694 16.4274H149.265C149.097 16.4274 148.961 16.5623 148.961 16.7286V23.6057Z" fill="#1CC464"/>
<path fill-rule="evenodd" clip-rule="evenodd" d="M170.652 14.2188C168.195 14.2188 166.202 16.1966 166.202 18.6362V30.7759C166.202 31.3902 166.701 31.8882 167.315 31.8882C167.929 31.8882 168.427 31.3902 168.427 30.7759V25.2622H181.775V30.7759C181.775 31.3902 182.273 31.8882 182.888 31.8882C183.502 31.8882 184 31.3902 184 30.7759V18.6362C184 16.1966 182.008 14.2188 179.551 14.2188H170.652ZM168.427 23.0535H181.775V18.6362C181.775 17.4164 180.779 16.4275 179.551 16.4275H170.652C169.423 16.4275 168.427 17.4164 168.427 18.6362V23.0535Z" fill="#627383"/>
<path fill-rule="evenodd" clip-rule="evenodd" d="M170.652 14.2188C168.195 14.2188 166.202 16.1966 166.202 18.6362V30.7759C166.202 31.3902 166.701 31.8882 167.315 31.8882C167.929 31.8882 168.427 31.3902 168.427 30.7759V25.2622H181.775V30.7759C181.775 31.3902 182.273 31.8882 182.888 31.8882C183.502 31.8882 184 31.3902 184 30.7759V18.6362C184 16.1966 182.008 14.2188 179.551 14.2188H170.652ZM168.427 23.0535H181.775V18.6362C181.775 17.4164 180.779 16.4275 179.551 16.4275H170.652C169.423 16.4275 168.427 17.4164 168.427 18.6362V23.0535Z" fill="#1CC464"/>
<defs>
<filter id="filter0_d_43_190" x="0" y="26.8884" width="63.0088" height="33.0471" filterUnits="userSpaceOnUse" color-interpolation-filters="sRGB">
<feFlood flood-opacity="0" result="BackgroundImageFix"/>
<feColorMatrix in="SourceAlpha" type="matrix" values="0 0 0 0 0 0 0 0 0 0 0 0 0 0 0 0 0 0 127 0" result="hardAlpha"/>
<feOffset/>
<feGaussianBlur stdDeviation="2.5"/>
<feColorMatrix type="matrix" values="0 0 0 0 0.364706 0 0 0 0 0.854902 0 0 0 0 0.980392 0 0 0 0.4 0"/>
<feBlend mode="normal" in2="BackgroundImageFix" result="effect1_dropShadow_43_190"/>
<feBlend mode="normal" in="SourceGraphic" in2="effect1_dropShadow_43_190" result="shape"/>
</filter>
<filter id="filter1_d_43_190" x="14.9111" y="0" width="33.1865" height="41.8818" filterUnits="userSpaceOnUse" color-interpolation-filters="sRGB">
<feFlood flood-opacity="0" result="BackgroundImageFix"/>
<feColorMatrix in="SourceAlpha" type="matrix" values="0 0 0 0 0 0 0 0 0 0 0 0 0 0 0 0 0 0 127 0" result="hardAlpha"/>
<feOffset/>
<feGaussianBlur stdDeviation="2.5"/>
<feColorMatrix type="matrix" values="0 0 0 0 0.109804 0 0 0 0 0.764706 0 0 0 0 0.392157 0 0 0 0.4 0"/>
<feBlend mode="normal" in2="BackgroundImageFix" result="effect1_dropShadow_43_190"/>
<feBlend mode="normal" in="SourceGraphic" in2="effect1_dropShadow_43_190" result="shape"/>
</filter>
<linearGradient id="paint0_linear_43_190" x1="5" y1="31.8884" x2="59.9937" y2="48.2715" gradientUnits="userSpaceOnUse">
<stop stop-color="#3C9CF4"/>
<stop offset="1" stop-color="#3CE9F4"/>
</linearGradient>
<linearGradient id="paint1_linear_43_190" x1="5" y1="31.8884" x2="59.9937" y2="48.2715" gradientUnits="userSpaceOnUse">
<stop stop-color="#3C9CF4"/>
<stop offset="1" stop-color="#3CE9F4"/>
</linearGradient>
</defs>
</svg>
