<svg width="241" height="242" viewBox="0 0 241 242" fill="none" xmlns="http://www.w3.org/2000/svg">
<path d="M12.3853 229.478L20.517 221.346M35.3663 206.497L27.9417 213.922M71.9169 152.538C85.8058 133.444 104.1 117.203 129.967 110.709C130.685 110.529 131.334 111.178 131.154 111.897C124.66 137.763 108.419 156.057 89.3254 169.946M71.9169 152.538C63.112 164.642 56.0776 177.893 50.0066 190.534C49.5998 191.382 50.4817 192.263 51.3287 191.857C63.9698 185.786 77.2208 178.751 89.3254 169.946M71.9169 152.538L62.3491 142.97C62.0664 142.687 61.9791 142.263 62.1284 141.892C63.3357 138.893 64.589 135.953 65.8854 133.071M65.8854 133.071C50.6974 118.93 36.514 122.652 6.41851 143.4C5.51141 144.025 4.37592 142.948 4.97904 142.026C32.9392 99.2814 50.7815 76.9426 100.039 78.8367M65.8854 133.071C75.3618 112.004 87.137 94.0449 100.039 78.8367M100.039 78.8367C123.476 51.2107 150.632 32.6621 174.482 21.0507M41.7298 185.99L28.2948 199.425M16.6275 211.093L20.8702 206.85M174.482 21.0507C205.903 5.75348 231.588 2.49636 235.478 6.38571C239.367 10.2751 236.11 35.9601 220.813 67.3812M174.482 21.0507L197.647 44.2159L220.813 67.3812M89.3254 169.946L98.8931 179.514C99.1759 179.797 99.5999 179.884 99.9708 179.735C102.97 178.528 105.91 177.274 108.792 175.978M108.792 175.978C122.933 191.166 119.211 205.349 98.4636 235.445C97.8383 236.352 98.9154 237.487 99.8374 236.884C142.582 208.924 164.921 191.082 163.027 141.824M108.792 175.978C129.859 166.501 147.818 154.726 163.027 141.824M163.027 141.824C190.652 118.387 209.201 91.2317 220.813 67.3812M55.8728 200.133L42.4378 213.568M30.7705 225.236L35.0132 220.993M174.313 67.5504C162.075 55.313 149.493 67.6241 152.805 88.2429C152.872 88.6579 153.205 88.9914 153.62 89.058C174.239 92.3706 186.55 79.7879 174.313 67.5504Z" stroke="#F0F0F0" stroke-width="8" stroke-linecap="round"/>
</svg>
